# Blender 3.4.1
# www.blender.org
mtllib deathmatch.mtl
o Cube
v 10.000000 0.080000 -10.000000
v 10.000000 -0.080000 -10.000000
v 10.000000 0.080000 10.000000
v 10.000000 -0.080000 10.000000
v -10.000000 0.080000 -10.000000
v -10.000000 -0.080000 -10.000000
v -10.000000 0.080000 10.000000
v -10.000000 -0.080000 10.000000
vn -0.0000 1.0000 -0.0000
vn -0.0000 -0.0000 1.0000
vn -1.0000 -0.0000 -0.0000
vn -0.0000 -1.0000 -0.0000
vn 1.0000 -0.0000 -0.0000
vn -0.0000 -0.0000 -1.0000
vt 7.454802 0.500001
vt -6.454802 0.500001
vt 7.454802 14.409603
vt -6.454802 14.409603
vt 21.364405 0.500001
vt 7.454802 -13.409603
vt -20.364405 0.500001
vt -6.454802 -13.409603
vt 21.364405 14.409603
vt 7.454802 28.319206
vt 7.454802 -27.319206
vt -6.454802 28.319206
vt -6.454802 -27.319206
vt -20.364405 14.409603
s 0
usemtl Material
f 1/1/1 5/5/1 7/9/1 3/3/1
f 4/4/2 3/3/2 7/10/2 8/12/2
f 8/13/3 7/11/3 5/6/3 6/8/3
f 6/7/4 2/2/4 4/4/4 8/14/4
f 2/2/5 1/1/5 3/3/5 4/4/5
f 6/8/6 5/6/6 1/1/6 2/2/6
o Cube.002
v 0.579766 0.080000 -6.527754
v 0.579766 1.692482 -6.527754
v 0.579766 0.080000 -7.051638
v 0.579766 1.692482 -7.051638
v 5.602784 0.080000 -6.527754
v 5.602784 1.692482 -6.527754
v 5.602784 0.080000 -7.051638
v 5.602784 1.692482 -7.051638
vn -1.0000 -0.0000 -0.0000
vn -0.0000 -0.0000 -1.0000
vn 1.0000 -0.0000 -0.0000
vn -0.0000 -0.0000 1.0000
vn -0.0000 -1.0000 -0.0000
vn -0.0000 1.0000 -0.0000
vt -0.933512 -5.234047
vt -0.933512 6.234047
vt -3.800536 3.367023
vt 1.933512 -5.234047
vt 1.933512 6.234047
vt 4.800536 3.367023
vt -0.933512 -2.367023
vt -3.800536 0.500000
vt 1.933512 -2.367023
vt 4.800536 0.500000
vt -0.933512 3.367023
vt 1.933512 3.367023
vt -0.933512 0.500000
vt 1.933512 0.500000
s 0
usemtl Material.006
f 9/15/7 10/18/7 12/23/7 11/21/7
f 11/21/8 12/23/8 16/28/8 15/27/8
f 15/27/9 16/28/9 14/26/9 13/25/9
f 13/25/10 14/26/10 10/19/10 9/16/10
f 11/22/11 15/27/11 13/25/11 9/17/11
f 16/28/12 12/24/12 10/20/12 14/26/12
o Cube.003
v -6.620734 0.079999 4.596605
v -6.620734 1.145719 4.596605
v -6.620734 0.079999 2.829643
v -6.620734 1.145719 2.829643
v -4.073269 0.079999 4.596605
v -4.073269 1.145719 4.596605
v -4.073269 0.079999 2.829643
v -4.073269 1.145719 2.829643
vn -1.0000 -0.0000 -0.0000
vn -0.0000 -0.0000 -1.0000
vn 1.0000 -0.0000 -0.0000
vn -0.0000 -0.0000 1.0000
vn -0.0000 -1.0000 -0.0000
vn -0.0000 1.0000 -0.0000
vt -0.533301 -3.633205
vt -0.533301 4.633205
vt -2.599903 2.566603
vt 1.533301 -3.633205
vt 1.533301 4.633205
vt 3.599903 2.566603
vt -0.533301 -1.566603
vt -2.599903 0.500000
vt 1.533301 -1.566603
vt 3.599903 0.500000
vt -0.533301 2.566603
vt 1.533301 2.566603
vt -0.533301 0.500000
vt 1.533301 0.500000
s 0
usemtl Material.002
f 17/29/13 18/32/13 20/37/13 19/35/13
f 19/35/14 20/37/14 24/42/14 23/41/14
f 23/41/15 24/42/15 22/40/15 21/39/15
f 21/39/16 22/40/16 18/33/16 17/30/16
f 19/36/17 23/41/17 21/39/17 17/31/17
f 24/42/18 20/38/18 18/34/18 22/40/18
o Cube.004
v 3.554599 0.080000 5.296763
v 3.554599 0.715830 5.296763
v 3.554599 0.080000 4.524772
v 3.554599 0.715830 4.524772
v 5.568940 0.080000 5.296763
v 5.568940 0.715830 5.296763
v 5.568940 0.080000 4.524772
v 5.568940 0.715830 4.524772
vn -1.0000 -0.0000 -0.0000
vn -0.0000 -0.0000 -1.0000
vn 1.0000 -0.0000 -0.0000
vn -0.0000 -0.0000 1.0000
vn -0.0000 -1.0000 -0.0000
vn -0.0000 1.0000 -0.0000
vt -0.453657 -3.314626
vt -0.453657 4.314627
vt -2.360970 2.407313
vt 1.453657 -3.314626
vt 1.453657 4.314627
vt 3.360970 2.407313
vt -0.453657 -1.407313
vt -2.360970 0.500000
vt 1.453657 -1.407313
vt 3.360970 0.500000
vt -0.453657 2.407313
vt 1.453657 2.407313
vt -0.453657 0.500000
vt 1.453657 0.500000
s 0
usemtl Material.004
f 25/43/19 26/46/19 28/51/19 27/49/19
f 27/49/20 28/51/20 32/56/20 31/55/20
f 31/55/21 32/56/21 30/54/21 29/53/21
f 29/53/22 30/54/22 26/47/22 25/44/22
f 27/50/23 31/55/23 29/53/23 25/45/23
f 32/56/24 28/52/24 26/48/24 30/54/24
o Cube.005
v -3.619236 0.080000 -3.084540
v -3.619236 1.692482 -3.084540
v -3.619236 0.080000 -4.674523
v -3.619236 1.692482 -4.674523
v -5.126141 0.080000 -3.084540
v -5.126141 1.692482 -3.084540
v -5.126141 0.080000 -4.674523
v -5.126141 1.692482 -4.674523
vn 1.0000 -0.0000 -0.0000
vn -0.0000 -0.0000 -1.0000
vn -1.0000 -0.0000 -0.0000
vn -0.0000 -0.0000 1.0000
vn -0.0000 -1.0000 -0.0000
vn -0.0000 1.0000 -0.0000
vt -1.454622 -7.318489
vt -1.454622 8.318489
vt -5.363867 4.409244
vt 2.454622 -7.318489
vt 2.454622 8.318489
vt 6.363867 4.409244
vt -1.454622 -3.409245
vt -5.363867 0.500000
vt 2.454622 -3.409245
vt 6.363867 0.500000
vt -1.454622 4.409244
vt 2.454622 4.409244
vt -1.454622 0.500000
vt 2.454622 0.500000
s 0
usemtl Material.005
f 33/57/25 35/63/25 36/65/25 34/60/25
f 35/63/26 39/69/26 40/70/26 36/65/26
f 39/69/27 37/67/27 38/68/27 40/70/27
f 37/67/28 33/58/28 34/61/28 38/68/28
f 35/64/29 33/59/29 37/67/29 39/69/29
f 40/70/30 38/68/30 34/62/30 36/66/30
o Cube.001
v 1.516975 0.080000 -0.964440
v 1.516975 1.692482 -0.964440
v 1.516975 0.080000 -1.488324
v 1.516975 1.692482 -1.488324
v 4.783117 0.080000 -0.964440
v 4.783117 1.692482 -0.964440
v 4.783117 0.080000 -1.488324
v 4.783117 1.692482 -1.488324
vn -1.0000 -0.0000 -0.0000
vn -0.0000 -0.0000 -1.0000
vn 1.0000 -0.0000 -0.0000
vn -0.0000 -0.0000 1.0000
vn -0.0000 -1.0000 -0.0000
vn -0.0000 1.0000 -0.0000
vt -1.069589 -5.778357
vt -1.069589 6.778357
vt -4.208766 3.639178
vt 2.069589 -5.778357
vt 2.069589 6.778357
vt 5.208766 3.639178
vt -1.069589 -2.639178
vt -4.208766 0.500000
vt 2.069589 -2.639178
vt 5.208766 0.500000
vt -1.069589 3.639178
vt 2.069589 3.639178
vt -1.069589 0.500000
vt 2.069589 0.500000
s 0
usemtl Material.003
f 41/71/31 42/74/31 44/79/31 43/77/31
f 43/77/32 44/79/32 48/84/32 47/83/32
f 47/83/33 48/84/33 46/82/33 45/81/33
f 45/81/34 46/82/34 42/75/34 41/72/34
f 43/78/35 47/83/35 45/81/35 41/73/35
f 48/84/36 44/80/36 42/76/36 46/82/36
